<?xml version="1.0" encoding="UTF-8"?><svg xmlns="http://www.w3.org/2000/svg" viewBox="0 0 47.9 46.67"><defs><style>.d{fill:#fff;}</style></defs><g id="a"/><g id="b"><g id="c"><g><rect class="d" y="21.25" width="6.44" height="2.99"/><path class="d" d="M42.76,0H0V20.02H6.44c2.01-3.87,4.46-13.41,5.52-17.78h23.98c1.06,4.36,3.51,13.9,5.52,17.78h6.44V0h-5.15Z"/><path class="d" d="M35.78,39.67H12.12l-6.06-14.19H0v20.38s2.27,1.82,6.44,0c4.17-1.82,4.17,1.46,8.33,0l-1.69-3.95h21.74l-1.69,3.95c4.17,1.46,4.17-1.82,8.33,0,4.17,1.82,6.44,0,6.44,0V25.48h-6.06l-6.06,14.19Z"/><rect class="d" x="41.46" y="21.25" width="6.44" height="2.99"/><rect class="d" x="14.1" y="19.9" width="21.89" height=".94" transform="translate(-7.06 23.67) rotate(-45)"/><rect class="d" x="20.57" y="27.58" width="15.16" height=".94" transform="translate(-11.59 28.12) rotate(-45)"/></g></g></g></svg>